# xmcd
#
# Track frame offsets:
#	150
#	13649
#	26938
#	39859
#	52490
#	66143
#	81167
#	94805
#	110145
#	123985
#	135843
#	147678
#	161077
#	175351
#	188338
#	202661
#	216825
#	231695
#	243045
#	256735
#	270390
#	284120
#	296929
#	312441
#	326279
#
# Disc length: 4641 seconds
#
# Revision: 0
# Processed by: cddbd v1.5.2PL0 Copyright (c) Steve Scherf et al.
# Submitted via: audiograbber 1.83.01
#
DISCID=7b121f19
DTITLE=Various Artist - Boom's Blues
DYEAR=1900
DGENRE=
TTITLE0=Lonnie Johnson - Sweet Potato Blues
TTITLE1=Mississippi John Hurt - Stack O'Lee Blues
TTITLE2=Walter Vinson - our Friends Gonna Use It Too - Part 1
TTITLE3=Walter Vinson - our Friends Gonna Use It Too - Part 2
TTITLE4=Billy Banks - Spider Crawl
TTITLE5=Jimmy Rushing and Count Basie - You Can't Run Around
TTITLE6=Pee Wee Russell's Rhythmakers - Horn of Plenty Blues
TTITLE7=Robert Hicks (Barbecue Bob) - Thinkin' Funny Blues
TTITLE8=Gene Campbell - Somebody's Been Playin' Papa
TTITLE9=Robert Wilkins - Alabama Blues
TTITLE10=Hamfoot Ham (Harlem Hamfats) - Oh! Red
TTITLE11=Bill Gaither (Leroy's Buddy) - Tee-Ninecy Mama (Little Sweet Mama)
TTITLE12=Robert Hicks (Barbecue Bob) - Honey You Don't Know My Mind
TTITLE13=Robert Hicks (Barbecue Bob) - Chocolate To The Bone
TTITLE14=Trixie Smith - Trixie Blues
TTITLE15=Luis Russell - It's Tight Like That
TTITLE16=Moanin' Bernice Edwards - High Powered Mama Blues
TTITLE17=Lonnie Johnson - Man Killing Broad
TTITLE18=Victoria Spivey - Black Snake Swing
TTITLE19=Lonnie Johnson - Bedbug Blues Part 2
TTITLE20=Blind Willie McTell - Scarey Day Blues
TTITLE21=Sloke and Ike - Say Pretty Mama (I'm Going To Kansas City)
TTITLE22=Victoria Spivey - Christmas Mornin' Blues
TTITLE23=Memphis Jug Band - I Whipped My Woman With A Single-Tree
TTITLE24=Frans Boom - Over Humor en Satire in de Jazz
EXTD=
EXTT0=
EXTT1=
EXTT2=
EXTT3=
EXTT4=
EXTT5=
EXTT6=
EXTT7=
EXTT8=
EXTT9=
EXTT10=
EXTT11=
EXTT12=
EXTT13=
EXTT14=
EXTT15=
EXTT16=
EXTT17=
EXTT18=
EXTT19=
EXTT20=
EXTT21=
EXTT22=
EXTT23=
EXTT24=
PLAYORDER=
